<?xml version="1.0" standalone="no"?>
<!DOCTYPE svg PUBLIC "-//W3C//DTD SVG 20010904//EN"
 "http://www.w3.org/TR/2001/REC-SVG-20010904/DTD/svg10.dtd">
<svg version="1.0" xmlns="http://www.w3.org/2000/svg"
 width="612.000000pt" height="612.000000pt" viewBox="0 0 612.000000 612.000000"
 preserveAspectRatio="xMidYMid meet">
<g transform="translate(0.000000,612.000000) scale(0.100000,-0.100000)"
fill="#000000" stroke="none">
<path d="M2878 6115 c-2 -2 -43 -6 -93 -8 -49 -3 -101 -8 -115 -11 -14 -3 -41
-7 -60 -10 -100 -16 -206 -37 -296 -60 -115 -29 -314 -90 -341 -105 -10 -5
-45 -20 -78 -32 -191 -72 -559 -284 -708 -408 -199 -166 -362 -323 -457 -441
-25 -30 -47 -57 -50 -60 -70 -68 -262 -364 -349 -539 -111 -220 -223 -528
-255 -701 -2 -14 -12 -61 -21 -105 -22 -113 -29 -159 -42 -305 -14 -151 -8
-531 11 -665 7 -44 19 -118 23 -135 1 -8 5 -31 8 -50 8 -59 72 -299 109 -407
118 -348 323 -708 565 -994 121 -142 329 -339 483 -457 73 -56 271 -189 303
-203 11 -5 36 -19 55 -31 68 -41 267 -137 365 -176 262 -104 566 -175 855
-202 94 -8 552 -5 615 5 448 70 693 143 1015 304 522 261 950 653 1251 1147
197 322 335 687 399 1049 5 33 12 71 15 85 35 199 41 669 11 840 -3 14 -7 47
-11 74 -43 343 -190 759 -386 1093 -50 85 -167 263 -180 273 -3 3 -23 27 -43
55 -212 279 -564 590 -866 764 -108 62 -327 168 -430 209 -163 63 -436 142
-550 158 -19 3 -48 8 -65 11 -16 4 -34 7 -40 8 -12 3 -117 16 -160 21 -41 5
-483 13 -487 9z"/>
</g>
</svg>
