<svg version="1" xmlns="http://www.w3.org/2000/svg" width="512" height="512" viewBox="0 0 384.000000 384.000000"><path d="M164 3.6c-5.2.8-14.6 2.8-20.8 4.4C79.8 24.5 27.6 75.3 9.5 138.2c-6 20.7-6.9 27.8-7 53.8 0 25.9 1.2 34.5 7.6 56.1 17.3 58.5 67.3 108.5 125.8 125.8 21.5 6.4 30.3 7.6 56.1 7.6s34.6-1.2 56.1-7.6c58.5-17.3 108.5-67.3 125.8-125.8 6.5-21.8 7.6-30.2 7.5-56.6 0-22.1-.2-25-2.7-36.6-10.9-51.6-39-93.4-82.2-122.1-15.6-10.4-45.1-23.5-54.6-24.2-1.9-.2-4.4-.8-5.5-1.4-8.1-4.3-53.5-6.6-72.4-3.6zM216 8c1.2.8 1.2 1.4-.3 4.5-1.9 3.9-2.3 8.5-.7 8.5 1.8 0 1.1 2.5-1.8 6-1.6 1.9-3.4 4.9-4.1 6.6l-1.2 3.1-4.5-1.5c-3.5-1.1-4.7-1.2-5.9-.2-2.4 2-1.8 3.3 1.1 2.6 2.5-.7 2.6-.5 2 2.1-.4 1.5-1.6 3.4-2.6 4.2-3.1 2.1-2.4 3.8 2.3 5.9 5.2 2.3 10.4 6.6 11.3 9.4.3 1.2 1.7 3.1 3 4.3 1.3 1.2 2.4 3.1 2.4 4.1 0 2.6 3.8 9.6 6.2 11.3 1.1.7 1.7 1.9 1.4 2.7-.3.7.2 1.7 1 2.2.9.5 1.6 2.3 1.6 4.3.1 1.8.7 3.9 1.4 4.7 1.6 1.6.8 6.9-1.4 9.5-1.4 1.6-1.4 1.9-.2 2.7 1.2.8 1 1-.8 1-1.3 0-2 .4-1.7 1 .3.5.3 1.6-.2 2.2-.4.7-.9 2.2-1 3.3-.1 1.1-.4 3.2-.7 4.7-.3 2-.1 2.5 1 2.1 3.4-1.3.7 7.7-2.9 9.2-2.9 1.4-3.6 4-.8 3.2 1.1-.3 1.9-.2 1.6.3-.3.4.2 1 1 1.4.8.3 1.5 1.4 1.5 2.5s.7 2.7 1.6 3.5c.8.9 1.2 2.1.9 2.6-.4.6-.1 1.7.5 2.5s.9 1.9.5 2.5c-.4.6-.3 1 .2.9 2.1-.4 3.3.2 3.3 1.6 0 .9 1 1.4 2.8 1.4 1.5 0 3.8.2 5.2.4 3.1.5 6.5-1.3 4.7-2.5-.8-.5-.6-.8.7-.8 1.2 0 1.6-.5 1.3-1.5-.4-.8-.2-1.7.3-2 .6-.4 1-1.5 1-2.6 0-1.6.5-1.9 2-1.4s1.8.3 1.4-.9c-.4-.9 0-2.3.7-3.2 1-1.3 1-1.7-.2-2.5-1-.8-.8-.9.9-.4 1.6.5 2.2.2 2.2-.9 0-.8 1-2.1 2.3-2.7 2.1-1.2 2.1-1.3-1.3-2.2-4-1-5-2.1-5-5.9 0-1.8.8-3.1 2.3-3.9 1.2-.7 3.2-2.3 4.5-3.6 2.2-2.4 2.2-2.5.2-3-2.1-.6-2.7-3.7-1.1-6.2 1.1-1.7 3.2-.5 2.5 1.4-.4.8.1 1.8 1 2.1.9.3 1.4 1 1.1 1.4-.3.5 0 1.2.6 1.6.9.5 1 .1.7-1.4-.4-1.2 0-2.6.8-3.3.8-.6 1.4-2.3 1.4-3.7 0-2-.3-2.3-1.2-1.4-1.3 1.3-5.2-.3-4.3-1.9 1-1.5 2.3-1.1 2.8.8.4 1.4.5 1.3.6-.3 0-1.2-.6-2.4-1.4-2.8-.8-.3-1.5-1-1.5-1.6 0-1.5 2.7-1.2 3.3.4.4.9 1.4 1.2 2.6.9 1.5-.4 2.3-1.6 2.7-4.4.4-2.1 1.3-4.4 2-5 1.1-.9 1.4-.6 1.4 1.9 0 1.7.5 3.4 1.1 3.8.7.4.9 2.1.5 4.5-.3 2.2-.3 3.9.1 3.9.5 0 2.3 1.4 4.1 3.1 2.6 2.4 3.9 3 5.8 2.5 2.4-.6 2.5-.5 2.3 2.7-.2 1.9.3 4.2 1 5.1.8.9 1 2.3.6 3.3-1 2.5-1.2 7.1-.4 11.6.5 2.7.3 4-.8 4.5-.9.6-1.5 2.7-1.6 6-.1 4.8.2 5.5 3.3 8 3.2 2.8 3.3 2.9 1.7 5.8-5.2 9.5-7 16.4-4.2 16.4.8 0 1.8 1.2 2.2 2.7 1.2 4.1.9 23.3-.4 26.8-.8 2.4-.5 5 1.4 13 1.4 5.5 2.6 10.2 2.9 10.4.2.2 1.1-.2 2-1 1.6-1.3 1.7-1.1 1.1 2-.4 1.8-.7 4.5-.7 6-.1 2.5-.1 2.5-1.5.7-.8-1.1-1.8-1.7-2.1-1.3-.8.8-4.9-1.4-8.9-4.8l-3-2.5h2.7c3.5 0 4.2-1.3 1.8-3.5-1.9-1.7-1.9-2-.4-4.3.9-1.3 1.1-2.2.5-1.8-.5.4-1.7-.7-2.6-2.4-.8-1.6-1.3-3-.9-3s.1-.7-.6-1.5c-.6-.8-.9-1.8-.6-2.3.8-1.4-3.1-4.5-4.5-3.6-.8.5-1 .2-.6-.8.4-1.1 0-1.5-1.1-1.4-2.3.4-2.7 2.5-.7 4 1.2.8 1.4 1.5.7 2-.6.3-1.4.1-1.8-.5-.4-.8-.9-.7-1.6.2-.5.9-.6.3-.2-1.6.5-2.5.4-2.8-.7-1.7-1.1 1-1.6.8-2.6-1-1.2-2.2-1.2-2.2-1.3.8 0 1.7.7 4.8 1.6 6.9.8 2 1.4 4.9 1.2 6.4-.3 2.6-.3 2.6-4.5-1.8-4.1-4.2-4.9-6.6-1.8-5.4 1.6.6 1.8 0 1.9-6.4.1-2.4-.2-4.3-.6-4.3-.5 0-.8-.7-.8-1.6 0-1.4.2-1.4 1.6-.3 1.5 1.2 1.6 1 1-2.1-.5-2.8-.4-3.1.4-1.2.5 1.2 1.6 2.5 2.5 2.8.8.4 1.5 1.3 1.5 2.2 0 1.3.3 1.2 1.5-.4 1.4-1.9 1.4-1.9 1.5.1.1 1.2.4 1.5.7.7.6-1.6-3.3-5.5-4.7-4.7-.6.4-1.3-.2-1.7-1.2-1.8-5-5.4-4.3-8 1.8-1.3 2.7-2.7 4.8-3.2 4.5-.5-.3-1.4.1-2.1.9-.7.8-2.2 1.5-3.4 1.5-1.5 0-2.6 1.2-3.9 4.4-2 4.8-4.4 6.8-9.8 8.4-3.2.9-15.9 11.9-15.9 13.8 0 .4-1 1.8-2.2 3.2-1.7 1.8-2.3 3.5-2.2 6.8 0 2.4-.3 4.4-.8 4.4-.4 0-.8.7-.8 1.5 0 .9-.9 2.5-1.9 3.7-1.6 1.6-1.9 3.3-1.7 8 .2 4.7 0 5.5-.8 3.9-1.6-2.8-4.6-.9-4.6 2.9 0 1.6-.5 3.2-1 3.5-.6.4-.8 1-.5 1.5.6 1-4.6 2.4-5.4 1.3-2.6-3.5-9.1-3.8-9.1-.3 0 1-.7 2.5-1.5 3.4-.8.8-1.5 2.2-1.5 3 0 2.8-2.1 1.7-3.6-1.9-1.3-3.2-1.6-3.4-2.9-2.1-.8.8-1.5 2.1-1.5 2.8-.1 1.7-2.5 4.9-3.2 4.2-.3-.3-.6.5-.6 1.8-.1 4.2-.9 8.3-2 10.5-.7 1.2-1.2 3.1-1.2 4.2 0 1.2-.9 3.7-1.9 5.7-1.2 2.2-1.6 4.3-1.2 5.7 1 3.4 4.5 8.7 5.6 8.7.6 0 2.5 1.6 4.4 3.5 1.8 1.9 3.6 3.5 4.1 3.5 1.3 0 4.1-3.1 3.6-3.9-.9-1.3-3.6-15.5-3.1-15.9 1.6-1.7 6.4 8.5 5 10.8-.3.5 0 1.2.5 1.5.7.4.8 1.9.5 3.7-.5 1.9-.3 3.3.4 3.8.7.4 1.4 4.6 1.6 9.9.3 6 .2 9-.5 8.6-1-.6-1.4 1.3-1.1 4.7.2 1.2-.4 1.5-1.9 1.1-1.6-.4-2-.1-2 1.6 0 2.9 3 12 4.1 12.7.5.3.9 1.5.9 2.7 0 2 .2 1.9 1.5-.7.8-1.5 1.5-3.7 1.5-4.7 0-1.1.7-3.1 1.6-4.4.9-1.4 1.3-3.3.9-4.5-.6-2 .9-2.8 2-1 1.4 2.3 2.5 13.1 1.5 15-1.1 2.1.7 4.1 1.9 2.1.8-1.3 4.1-.4 4.1 1 0 .9-5.4 1.3-13.7 1.1-2.3-.1-4.5.3-4.8.8-.3.6-2.4 1-4.6 1-2.4 0-3.9.5-3.9 1.2-.1 2.2-3.9 6-5.4 5.5-.8-.3-1.7-1.9-2.1-3.6-.8-3.9-1.9-3.9-3.5-.1-1.9 4.5-4.1 3.4-6.2-3-.9-3-1.7-4.9-1.7-4.3-.1 1.4-5.1 1.9-5.1.5 0-1-5-3.2-7.1-3.2-1 0-2.1-.5-2.4-1-.3-.6-1.6-.8-2.9-.4-1.9.4-2.4 0-3.4-3.4-.7-2.2-1.2-6-1.2-8.5 0-3.3-.6-5.2-1.9-6.4-2.6-2.4-3.9-9.2-2-10.4 1.9-1.2 4.9-1.1 4.9.1 0 .5-.6 1-1.4 1-1.6 0-2.9 2.7-2 4.2.4.7 1.4.1 2.5-1.3l1.9-2.4v3c.1 2.8 3 8.4 3 5.7 0-1.9 1.8-1.4 2.3.5.3 1.3.6.9 1.1-1.2.4-1.7 1.1-3.8 1.7-4.7 1.2-2.4 1.2-2.8-.6-2.8-.9 0-1.5-.9-1.5-2.3 0-4.9-13.1-15.8-20.9-17.3-4-.8-4 .7.2 3.1 3.9 2.3 10.1 7.5 9 7.6-2.6.4-5.3-.8-12.6-5.4-4.5-2.8-8.5-5.7-8.9-6.3-.4-.6-1.9-1.5-3.3-1.8-1.4-.4-2.5-1.1-2.5-1.6 0-.6-.8-1-1.7-1-1.6 0-5-4.4-8.2-10.7-1.3-2.6-3.6-13.4-4.6-21.5-.6-5-.4-5.7.9-5.2 2.5.9 2.1-4.4-.5-6.4-1.9-1.6-2-2.8-2-14.5.1-7-.3-13.5-.8-14.5-.6-.9-1.7-3.7-2.5-6.2s-2.9-8.3-4.7-13c-8.9-24.4-9.8-27.8-11.5-46.3-.5-5.5-.8-6.6-1.9-5.7-2.3 1.9-2.6-.5-1-12.3C67.7 133 72.8 118 80 107.3c1.7-2.4 3-4.8 3-5.2 0-.5.7-1.4 1.5-2.1.8-.7 1.5-2.8 1.5-4.6 0-2.6.4-3.4 1.8-3.4 1.6 0 9.2-9.1 9.2-11.1 0-.5.5-.9 1.1-.9.7 0 .9 1 .4 2.7-.5 2.3-.4 2.6.6 1.5 1.8-1.7 2.9-1.5 2.9.4 0 1.1 1.8 0 5.4-3.5 3-2.8 6.2-5.1 7.1-5.1 1.7 0 1.4.4-8 10.5C94.1 99.7 87.3 110.1 93 107c1.9-1 2-.9 1.5 1.3-.7 2.4.5 3.9 3.3 4.3 1.1.2 1.7-1.7 1.3-4-.4-1.9 2.4-8.3 4.9-11.6 1.5-1.9 3.4-5.1 4.2-7 .8-1.9 3.4-5.4 5.7-7.8 2.2-2.3 4.1-4.6 4.1-5.1 0-.6.9-1.6 2.1-2.4 1.1-.8 2.8-3 3.7-4.8.9-1.9 2.6-3.6 3.7-3.8 1.1-.2 3.5-1.8 5.2-3.7 1.8-1.8 4.2-3.2 5.2-3.1 1.1 0 1.7.5 1.5.9-.3.4 1.5.8 4 .8 4.4 0 6-1.2 3.4-2.4-.7-.3.1-.4 1.7-.1 1.7.4 3.9.6 5 .6 1.8 0 1.8.1.4 1.2-.9.7-1.9 2.2-2.3 3.5-.4 1.3-1.5 2.2-2.7 2.2-1 0-1.9.6-1.9 1.3 0 .8-1.2 2-2.6 2.8-2.7 1.4-4.4 4.5-4.4 8.2 0 1.4-1.1 2.8-2.8 3.8-2.6 1.5-2.8 2.1-3 8.2-.2 5.1.2 6.8 1.4 7.5 1.3.7 1.4 1.5.5 4.9-.9 3.2-1.8 4.3-4.1 5.2-1.7.5-3 1.6-3 2.4 0 .8-.7 2-1.5 2.7-1.3 1-1.5.9-1.5-.8 0-1.2-.7-2.5-1.6-3-1.2-.7-1.5-1.7-1-3.5.4-1.9 1.3-2.6 4.1-2.9 1.9-.2 4 .1 4.5.6.7.7 1 .6 1-.1s-1-1.9-2.1-2.7c-2.1-1.4-2.1-1.6-.4-3.2 1.7-1.8 1.7-7.4 0-11.5-.7-1.7 4.2-7.2 5.6-6.4.6.4 2-11.6 1.3-12.3-.7-.9-3.5 6.1-3.2 8 .2 1.4-.4 2.3-2.1 2.9-2.1.8-2.3.7-1.7-1.4.4-1.8.1-2.3-1.4-2.3-1.1 0-2 .5-2 1.1 0 .5-1.4 1-3.2 1-2.7 0-3.4.6-5.8 5.2-1.5 2.8-2.6 6.2-2.6 7.4.1 1.5-.8 2.7-2.2 3.5-2 1-2.1 1.2-.7 1.8.9.3 2.2.3 2.8-.1 2.1-1.3 5.7-1.2 5.7.2 0 1.5-3.4 3-4.8 2.1-1-.6-.8 5.1.2 6.1.4.4 1.6.1 2.8-.6 3.3-2.1 4.4.1 2.3 4.6-.9 2.1-2.4 4.3-3.2 4.9-1.2 1-1.1 1.4.3 2.8.9 1 2.3 1.5 3 1.2.8-.3 1.4-.1 1.4.5 0 .5 1.1.7 2.4.3 1.3-.3 2.6-.1 3 .4.7 1.1-4.2 3.5-5.5 2.7-1.5-1-1 2.9.6 5.1 2.1 2.8 1.8 5.8-.9 8.3-3.2 3-4.4 9.1-2.1 10.7.9.7 1.9 3.2 2.2 5.6.6 4.4 3.6 8.8 6 8.8.8 0 2.9 1.1 4.7 2.5 1.8 1.4 3.8 2.5 4.4 2.5.7 0 1.2.4 1.2.8s1 2 2.2 3.5c3 3.7 4.9 9.6 4.2 13-.5 2.6-.4 2.7 2.6 2.5 2.8-.3 3.3.1 4.4 3.2.8 2.4 1.7 3.4 2.9 3.2 1-.2 1.7.3 1.7 1.3 0 .8.3 1.5.8 1.5 1.3 0 6.5 5 5.9 5.7-.4.3-.2 1.2.4 2 .6.7.9 1.3.6 1.3-.3 0 .7 1.5 2.4 3.2 1.6 1.8 2.9 4 2.9 4.9 0 1.9 3.2 4.3 7.1 5.2 1.7.4 3.3 2.1 4.8 4.9 4.3 8.4 7.8 11.1 12.2 9.6 1.5-.5 3.1-1.8 3.4-2.9.4-1 1.5-1.9 2.5-1.9 2.2 0 1.7 2.5-.6 3.4-.8.3-1.4 1.4-1.4 2.5 0 1.2-.6 1.8-1.7 1.7-2.4-.1-2.8 3.3-.9 7.8 1.6 3.8 4.2 5.1 3.1 1.6-.4-1.4-.2-1.8.7-1.5 1 .4 1.4-.5 1.5-3.2.1-5.1 1.9-9.3 3.8-9.3 1.2 0 1.5.6 1 2.2-1.1 3.6-1.1 4 .2 4.5.7.3 2.1-.9 3-2.6 1-1.7 2.3-3.1 3-3.1 1.7 0 .9-5.4-.9-5.8-.8-.2-2 .7-2.6 2l-1.1 2.3v-2.6c-.1-1.4-.6-3-1.3-3.7-.8-.8-.8-1.5.3-2.8 2.5-3.1.4-8.4-3.3-8.4-2.4 0-1.8-2.4.7-2.9 1-.2 2.5-.9 3.3-1.7 2.2-2.3 7.1-1.8 8.1.8s4.7 6.8 6 6.8c1.7 0 7.7-2.4 9.2-3.6 1-.9 1.9-1 2.5-.4 1.3 1.3 5.4-1.5 5.4-3.6 0-1.3-.3-1.3-2.2 0-3.3 2.4-3.8 2-3.8-2.8 0-3.8.4-4.8 3-6.6 1.7-1.2 2.8-2.5 2.5-3-.7-1.1 3.4-6 5-6 .7 0 2.8-2.6 4.5-5.8 1.8-3.1 3.6-5.9 4-6.2.4-.3 1.2-1.5 1.9-2.7.9-1.8.9-2.7-.1-4.3-.7-1.1-1.7-2-2.3-2-1.7.1-4.5 2.6-4.5 4.1 0 1.1.2 1.1 1-.1.5-.8 1.1-1.2 1.4-.9 1.2 1.2-1.5 3.2-4.4 3.1-2.4 0-3.4.5-4.2 2.4-.6 1.3-1.5 2.4-2 2.4-.4 0-.8.7-.8 1.6 0 2.8-3.1 8.3-5.1 8.9-1 .4-1.9 1.3-1.9 2.1 0 1.6-.2 1.6-2.4.8-.9-.3-1.6-1.2-1.6-2s-.4-1.4-.9-1.4c-1 0-1 8.1 0 9 1.1.9-1.2 7.1-2.8 7.7-1.9.7-4.4-2.2-3.6-4.3.6-1.7-.8-1.9-2.4-.3-.8.8-1.3.8-1.7 0-.4-.6 0-1.1.8-1.1.9 0 1.6-.3 1.6-.8-.1-1.9-1.9-2.7-6.5-2.5-8.7.3-8.5.2-8.5 3.2 0 2.5-.3 2.7-4 2.6-2.5 0-4-.5-4-1.3 0-.6-.4-1.2-1-1.2-.5 0-1 .4-1 .8 0 .7-4.7.9-6 .2-.3-.1-.9-.2-1.4-.1-.5.1-1.7-.6-2.7-1.5-1-.9-2.3-1.3-2.9-.9-.7.4-1.6.2-2-.5-.7-1.1-1.2-1-2.5.3-2.3 2.3-3.3 2.1-5.3-1.1-.9-1.6-2.3-2.7-2.9-2.5-.7.3-1.3 0-1.3-.6 0-.7-1.2-1.7-2.7-2.3-2.2-.9-2.4-1.2-1-1.5 2.1-.6 2.2-2.1 0-4.5-2-2.3-5.2-11.4-5.3-15.2 0-5.2-6.9-10.4-12.7-9.7-2 .3-5.3-1.8-5.3-3.3 0-.8-.7-1.6-1.5-2-2.2-.8-1.8-2.9.5-2.3 1 .3 2.1 0 2.4-.7.3-.7.9-.5 1.6.6 1.3 2.1 3 2.4 3 .5 0-.7 1.4-2.9 3-4.9 2.6-3.1 2.9-4.1 2-5.8-.6-1.1-1.8-2-2.7-2-1.4 0-1.4-.2.2-2 1.1-1.2 3.1-2 4.9-2 2.7 0 3.4-.6 5-4.3 1.1-2.3 1.9-5 1.8-6.1-.2-1.4.3-1.7 1.8-1.3 1.9.5 2.2.2 2.4-2.6.1-.6.3-1.4.6-1.7 1.1-1 5-14.6 5-17.2 0-3.3 1.5-4.4 2.9-2.1.8 1.4 1.2 1.5 2.2.6 1.1-1.1 1.3-3.1.7-9.3-.1-1.4.1-3.5.6-4.8.5-1.7.4-2.2-.8-2.2-1.1 0-1.6-.9-1.6-2.9 0-1.6-.5-4.2-1-5.6-.8-2.2-1.5-2.6-3.5-2.2-1.4.2-2.8 0-3.1-.4-.3-.5.1-.9.8-.9.7 0 .1-.8-1.2-1.7-1.4-.9-2.7-1.8-2.9-2-.2-.1-.5-1.6-.6-3.3-.1-1.9.3-3 1.2-3 1.8 0 1.6-2.5-.3-4.1-1.4-1.2-1.4-1.4.1-2.5s1.4-1.6-.9-5.3c-1.4-2.2-2.6-4.7-2.6-5.5 0-1-.6-1.3-1.5-1-.8.4-1.5.2-1.5-.4 0-.6.6-1.2 1.3-1.5.9-.3.9-.7 0-1.7-.7-.7-.9-2.5-.6-4.1.3-1.6 0-3.5-.6-4.3-.9-1.1-.8-1.5.5-2s1.4-.9.5-2c-.9-1.1-.9-1.9 0-3.4 1-1.6 1-2.6.1-4.7-1.4-3.1-.7-4.9 1.7-3.9.9.3 2.5.7 3.6.8 1.1.2 2.9 1.7 4 3.5 3.5 5.8 8.7 11.2 10.2 10.7.8-.3 1.1-.1.8.4-.3.6-1.2 1-2 1-1.4 0-5.5 5.9-5.5 7.8 0 2.5 9.7 3.3 11.1 1 .5-.7.9-2.6.9-4.1 0-2.4.2-2.6 1.9-1.8 2 1.1 3.1-.2 3.1-3.9 0-2.3 3.6-5 6.7-5 1.2 0 3.1-.9 4.2-2.1 1.1-1.2 2.4-1.8 3-1.5.5.4 1.5-.3 2.1-1.4 1-1.8 1.4-1.9 2.7-.8 1.3 1.1 2 .7 4.4-2.2 1.6-1.9 2.9-4.6 2.9-6 0-3.9 1.2-4.8 4-3zm32.5 9c.3.5-.3 1-1.5 1s-1.8-.5-1.5-1c.3-.6 1-1 1.5-1s1.2.4 1.5 1zm6.5 0c0 .5-.4 1-1 1-.5 0-1-.5-1-1 0-.6.5-1 1-1 .6 0 1 .4 1 1zm-82.9 7.3c-1.3 1.3-2.6.3-1.6-1.2.3-.6 1.1-.8 1.7-.5.6.4.6 1-.1 1.7zM178 23c0 .5-.4 1-1 1-.5 0-1-.5-1-1 0-.6.5-1 1-1 .6 0 1 .4 1 1zm5 0c0 .5-.4 1-1 1-.5 0-1-.5-1-1 0-.6.5-1 1-1 .6 0 1 .4 1 1zm73.3.7c-.7.2-1.3 1.1-1.3 1.9 0 1.6-2.6 1.9-3.5.5-.6-1.1 2.3-3.1 4.5-3 1 0 1.1.2.3.6zM229 29c0 .5-.4 1-1 1-.5 0-1-.5-1-1 0-.6.5-1 1-1 .6 0 1 .4 1 1zm5 2.6c0 .8-.5 1.2-1 .9-.6-.4-.8-1.1-.5-1.6.9-1.4 1.5-1.1 1.5.7zm-3-.2c0 .3-.4.8-1 1.1-.5.3-1 .1-1-.4 0-.6.5-1.1 1-1.1.6 0 1 .2 1 .4zM93 39.9c0 1.2-2 2.5-2.7 1.8-.7-.7.6-2.7 1.8-2.7.5 0 .9.4.9.9zm25 .1c0 .5-.4 1-1 1-.5 0-1-.5-1-1 0-.6.5-1 1-1 .6 0 1 .4 1 1zm130.9 3.5c-.7.7-1.3.5-1.9-.5-1.5-2.4-1.1-3.1 1-1.8 1.3.9 1.6 1.6.9 2.3zm8.1-1c0 .8-.7 1.5-1.5 1.5-1.6 0-2-1.2-.8-2.3 1.1-1.2 2.3-.8 2.3.8zM211 44c0 .5-.4 1-1 1-.5 0-1-.5-1-1 0-.6.5-1 1-1 .6 0 1 .4 1 1zm-98 1c0 .5-.9 1.4-2.1 2-1.9 1.1-2 1-.9-.9 1.1-2.2 3-2.9 3-1.1zm108.2.5c0 .5-.5 1.1-1.1 1.3-.6.2-1.1-.4-1.1-1.3s.5-1.5 1.1-1.3c.6.2 1.1.8 1.1 1.3zm14.8-.6c0 .6-.4 1.3-1 1.6-.5.3-1-.1-1-.9 0-.9.5-1.6 1-1.6.6 0 1 .4 1 .9zm4.5 1.1c.3.5-.1 1-1 1s-1.3-.5-1-1c.3-.6.8-1 1-1 .2 0 .7.4 1 1zm16.1 1.7c-1 1-1.9-.5-1-1.8.6-1.1.8-1.1 1.2 0 .2.7.1 1.5-.2 1.8zM234.2 55c-.5 3.8.5 3.9 2 .2l1.2-2.7.4 2.7c.4 3.2.5 3.2 3.4 1.7 1.1-.6 2.3-.7 2.7-.3 1.4 2 5 3.4 5.7 2.2.9-1.4 2.2 1.5 2.3 5 .1 2-.1 2.1-1.9 1-1.1-.7-2-2.1-2-3.1 0-1.2-.6-1.7-1.7-1.5-1.5.3-1.7 1.2-1.4 5.8.2 3 .8 6.4 1.4 7.5.7 1.3.7 2-.2 2.3-.6.2-1.1 1.4-1.1 2.7 0 3.2-2.6 8-3.3 6.2-.3-.8-.2-1.8.3-2.3 4-4.3-.8-15.5-8.6-20.2-2.4-1.5-4.4-3.3-4.4-4.2 0-1 3.8-5.1 5.6-6 0 0-.1 1.3-.4 3zm26.2 7.4c-.5 2 0 2.7 2.6 4.1 2.7 1.4 3.4 1.5 4.2.3.6-.9.8-.4.6 1.7-.3 2.6 0 3 2 2.9 1.7 0 2.2.5 2.2 2.3V76l-3.8-1.9c-2.1-1.1-4.4-2.7-5.1-3.5-.8-.9-2.4-1.6-3.7-1.6-1.6 0-2.2-.5-1.8-1.4.3-.8-.3-1.6-1.5-1.9-2.7-.7-2.7-2.7-.1-2.7 1.1 0 2-.7 2-1.5s.7-1.5 1.5-1.5c1.1 0 1.4.7.9 2.4zm7.6.1c.8.9.8 1.5.2 1.5-1.8 0-4.2-1.2-4.2-2.1 0-1.4 2.6-1 4 .6zM92 70c0 .5-.7 1-1.5 1s-1.5-.5-1.5-1c0-.6.7-1 1.5-1s1.5.4 1.5 1zm160 1.1c0 .6-.4.7-1 .4-.5-.3-1-1.1-1-1.6 0-.6.5-.7 1-.4.6.3 1 1.1 1 1.6zm42 .1c0 1.8-.2 2-.9.8-.6-.8-.7-1.8-.5-2.2.9-1.4 1.4-.9 1.4 1.4zm-17 2.3c0 .8-.7 1.5-1.5 1.5-1.6 0-2-1.2-.8-2.3 1.1-1.2 2.3-.8 2.3.8zm16 3c0 .8-.4 1.5-1 1.5-.5 0-1-.7-1-1.5s.5-1.5 1-1.5c.6 0 1 .7 1 1.5zm-34.5 4.7c.6 2.1.4 2.8-.8 2.8-1.9 0-2.5-1.6-1.9-4.8.5-2.8 1.8-1.8 2.7 2zm21.1-1.7c-.3.8-.1 1.5.5 1.5s.7.4.4 1c-1 1.6-3.6 1.2-5.1-.8-2-2.6-1.7-3.2 1.7-3.2 2.4 0 3 .4 2.5 1.5zm-9.1 2.6c1 1.5-.1 2.3-2 1.5-.9-.3-1.3-1-1-1.6.8-1.3 2.2-1.3 3 .1zm-143.1 5.4c-.6 2.6-4.8 5.4-6.1 4.2-.3-.4 0-1.5.8-2.4.9-1 2.1-3.1 2.8-4.8 1.1-2.5 1.4-2.7 2.2-1.3.5 1 .7 2.9.3 4.3zm159.5-3.3c1.2 1.5 1.1 1.8-.3 1.8-1 0-1.6-.8-1.6-2.2 0-1.2.1-1.9.3-1.7.1.2.9 1.2 1.6 2.1zm17.6-.2c-.3.5-1 1-1.6 1-.5 0-.9-.5-.9-1 0-.6.7-1 1.6-1 .8 0 1.2.4.9 1zm-19.6 4.5c1.7 2 3.1 4.2 3.1 5 0 .7.6 1.6 1.3 1.8.8.4.8.6.1.6-.7.1-2.2-1.1-3.5-2.5-1.3-1.5-3.4-3.7-4.6-5.1-2.7-2.8-2.8-3.3-.9-3.3.8 0 2.8 1.6 4.5 3.5zM267 87c0 .5-.5 1-1.1 1-.5 0-.7-.5-.4-1 .3-.6.8-1 1.1-1 .2 0 .4.4.4 1zM84 90.9c0 2.2-1.6 3.6-2.4 2.2-.8-1.2.3-4.1 1.5-4.1.5 0 .9.9.9 1.9zm164.2 1.3c.2 1.6 1.4 2.6 3.8 3.4 3.5 1.1 6 3.7 4.8 5-1 1-8.8-2.8-8.8-4.3 0-.7-.6-1.3-1.3-1.3-.8 0-2.2-.9-3.1-1.9-1.7-1.9-1.7-2 .6-2.4 1.3-.2 2.6-.5 3-.6.4 0 .8.9 1 2.1zm-170.5 8.4c-.9.9-2.8-.6-2.1-1.8.4-.6 1-.6 1.7.1.6.6.8 1.3.4 1.7zM243 129c0 .5-.2 1-.4 1-.3 0-.8-.5-1.1-1-.3-.6-.1-1 .4-1 .6 0 1.1.4 1.1 1zm-99 36c0 .5-.4 1-.9 1-.6 0-1.3-.5-1.6-1-.3-.6.1-1 .9-1 .9 0 1.6.4 1.6 1zm17 24.9c0 .6-.4 1.3-1 1.6-.5.3-1-.1-1-.9 0-.9.5-1.6 1-1.6.6 0 1 .4 1 .9zm99.2 11.2c.6 3.7-1.4 4.9-4.1 2.5-1-.9-2.1-1.3-2.5-.9-.4.4-.4 0-.1-.9.4-.9 1.3-1.9 2.1-2.2.8-.3 1.4-1.3 1.4-2.2 0-2.9 2.7.3 3.2 3.7zm-70.2 2.5c0 .8-.5 1.2-1 .9-.6-.4-.8-1.1-.5-1.6.9-1.4 1.5-1.1 1.5.7zm11-.6c0 .5-.4 1-.9 1-.6 0-1.3-.5-1.6-1-.3-.6.1-1 .9-1 .9 0 1.6.4 1.6 1zm25 1c0 .5-.4 1-1 1-.5 0-1-.5-1-1 0-.6.5-1 1-1 .6 0 1 .4 1 1zm29.3 5.5c-.3.9-.8 1.4-1 1.1-.3-.3-.2-.9.2-1.5.9-1.6 1.5-1.3.8.4zm15.7-.1c0 .3-.4.8-1 1.1-.5.3-1 .1-1-.4 0-.6.5-1.1 1-1.1.6 0 1 .2 1 .4zm-67 3.2c0 .8-.4 1.2-1 .9-.5-.3-1-1.3-1-2.1s.5-1.2 1-.9c.6.3 1 1.3 1 2.1zm39.4 2.3c.3.5-.6 1.2-2 1.5-2.9.8-3.9.3-2.9-1.3.8-1.3 4.2-1.4 4.9-.2zm-23.5 30.6c1.3 1.4 2.1 3.2 1.7 4-.6 1.6 1.9 4.5 3.7 4.4.9 0 .8-.2 0-.6-1.4-.5-1.8-3.3-.5-3.3 1.6 0 4.4 3.8 3.3 4.4-.6.4-.8 1.3-.5 2 .3.9-.6 1.8-2.5 2.4-3.1 1.1-3.9 2.6-2.1 3.7.6.3 1 1 1 1.6 0 .5-.9 0-2-1.1s-2-2.3-2-2.7c0-.3-1.1-2.1-2.5-3.9-1.4-1.8-2.5-3.9-2.5-4.8 0-.8-.4-1.8-1-2.1-.5-.3-1-1.3-1-2.2 0-1.3.3-1.3 1.5-.3 1.3 1.1 1.5.8 1.5-1.4 0-3.2.8-3.3 3.9-.1zM207.5 264c1.4 1.6 1.5 2 .4 2-1.6 0-3.9-1.9-3.9-3.2 0-1.4 1.6-.9 3.5 1.2zM90 265c0 .5-.2 1-.4 1-.3 0-.8-.5-1.1-1-.3-.6-.1-1 .4-1 .6 0 1.1.4 1.1 1zm123.5.9c.3.5.1 1.2-.5 1.6-.6.4-.4 1.7.6 3.6 1.2 2.5 1.9 5.7 2.3 11.1.1.5 1.2.8 2.6.8 1.4 0 2.5.5 2.5 1.1 0 .6.7.4 1.5-.5.8-.8 2.4-1.8 3.5-2.1 1.1-.3 2-1.3 2-2 0-.8.5-1.7 1-2 .6-.4 1-.3.9.2-.1.4.3 2.1.9 3.6 1.7 4 1.5 4.6-1.4 5.8-2.4.9-2.5 1.1-1.1 2.7.8.9 1.7 3 1.9 4.7.3 2.6-.1 3-3 3.6-1.8.4-3.5.9-3.8 1.2-1 .9.8 5.7 2.2 5.7.8 0 1.4.4 1.4.9 0 1.2-2.5 3.8-4.1 4.3-.7.2-1 1-.8 1.7.4 1.1.8 1 2.1-.2 3.2-3.3 8.2 1.2 6.4 5.8-.3.9-.2 1.3.4 1 1.6-1 1.2.2-1.2 4-1.3 1.9-2.9 3.5-3.5 3.5-1.4 0-1.8 1.6-.5 2.3.4.2.2.2-.5.1-.7-.2-1.5.1-1.8.6-1.1 1.7-2.4 1.1-3.1-1.5-.3-1.4-1-2.5-1.5-2.5s-.9-.7-.9-1.5-.4-1.5-1-1.5c-1.8 0-1.1 6 1 8.2 2.4 2.6 2.7 5 .5 4.1-1.3-.4-1.4-.2-.4 1.9.9 2 .8 3.1-.4 5.4l-1.5 2.8-1.1-3.8c-.6-2.4-.7-4.5-.1-5.6 1-1.8-.7-6.1-2.7-6.7-.7-.3-2 1.1-2.9 3.1-2.4 4.9-4.8 5.7-2.8 1 .8-1.9 1.2-3.9.9-4.4-.4-.6 0-1 .8-1 .9 0 1.7-1.4 2.1-3.5.4-1.9 1.1-3.5 1.6-3.5.6 0 1-.5 1-1.1 0-.6-1.2-.9-2.7-.7-2.3.2-2.9-.1-3.1-2-.2-1.2.1-2.2.7-2.2s1.1-1.3 1.1-2.9c0-1.6.6-3.4 1.4-4 2.4-2 2.9-6.7 1-9.6-1.3-2-1.7-5.1-1.9-13.8 0-6.2-.4-11.8-.8-12.4-.9-1.4.2-4.5 1.4-3.7.5.3.9-.2.9-1 0-1.8 1.5-2.1 2.5-.7zm68.3 2.4c1.4 1.7-1.6 6.9-5.3 9.3-6 3.9-31.1 9.6-27.8 6.3.6-.6.9-1.7.6-2.5-.6-1.7 4.6-3.1 5.7-1.5 1.1 1.9 13.4-3.4 16.7-7.3 1.9-2.1 3.6-3 5.3-2.9 1.4.1 1.9 0 1.1-.3-1.1-.5-1.1-.8 0-1.5 1.9-1.2 2.5-1.1 3.7.4zm-95.4 8.6c.9 1.5-2.3 3.6-3.6 2.3-.5-.5-.7-1.5-.4-2.1.9-1.3 3.3-1.4 4-.2zm48 2.8c.4.5 1.1.8 1.4.8 1.9 0 7.1 2.8 6.7 3.6-1.1 1.7-9.2-.9-9.8-3.2-.5-1.9.4-2.5 1.7-1.2zm58.6 14.1c-1.4 5.2-4.2 7.4-13.8 10.6-7.2 2.4-8 2.4-11.7 1.1-3.8-1.4-3.9-1.9-.2-1.6 1.1.2 1.7-.5 1.7-1.8 0-1.2-.3-2.1-.7-2.2-.5 0-1.9-.2-3.3-.3-1.4-.2-3 .4-3.6 1.2-.8 1.1-1.5 1.2-3.2.3-3.4-1.8-4.4-1.3-2.6 1.5l1.7 2.6-3.9-.7c-5.2-.9-8.2-2.4-8.9-4.6-.3-.9-1.5-1.9-2.5-2.2-1.1-.3-2-1-2-1.6 0-1.8 2.9-1.2 4.7.9 1.9 2.2 4.4 2.5 7.5.9 1.6-.8 1.9-1.7 1.4-4-.3-1.6-.4-2.9-.2-2.9 1.8 0 3.6 1.5 3.6 3 0 1.2 1 2 3.1 2.4 4.7.9 7.7.7 8.1-.5.2-.7 1.3-.5 3.1.4 1.4.8 2.3 1.8 1.9 2.2-.4.5-.2.5.5.1.6-.3 1-1.7.7-3.1-.4-2.1-.1-2.4 2.5-2.2 1.9.1 2.8.7 2.6 1.7-.2.8-.4 1.8-.4 2.1-.1.4-1.7 1.4-3.6 2.3-2 1-3.3 2.1-3 2.6 1 1.6 10.9-2 13.3-4.8 8.2-9.8 9.1-10.2 7.2-3.4zm-56 7.3c0 1.1.7 1.9 1.6 1.9 1.2 0 1.4.7.9 3.2-1.2 5.5-2.1 5.2-3.4-.8-1.4-7-1.4-7.7-.1-6.9.6.3 1 1.5 1 2.6zm-41-1.2c0 1.2-2 2.5-2.7 1.8-.7-.7.6-2.7 1.8-2.7.5 0 .9.4.9.9zm34 6.1c0 .5-.4 1-1 1-.5 0-1-.5-1-1 0-.6.5-1 1-1 .6 0 1 .4 1 1zm26 3.9c0 .5-1.9 1.9-4.2 3.1-4.6 2.3-6.2 3.1-12.1 6.8-4.1 2.5-6.4 2.2-3.1-.3 1-.8 4.2-2.6 6.9-4 2.8-1.4 6.6-3.4 8.5-4.5 4-2.3 4-2.3 4-1.1zm-3 9.5c0 2.1-4.9 7.6-5 5.5 0-.9 1-2.8 2.3-4.2 2.6-3.1 2.7-3.1 2.7-1.3zm-5 .6c0 .5-.5 1-1.1 1-.5 0-.7-.5-.4-1 .3-.6.8-1 1.1-1 .2 0 .4.4.4 1zm-44.1 9.2c.1.5-.3.8-.9.8-.5 0-1-1.2-.9-2.8 0-2.4.1-2.5.9-.7.5 1.1.9 2.3.9 2.7zm-12.9-1.3c0 .6-.4 1.3-1 1.6-.5.3-1-.1-1-.9 0-.9.5-1.6 1-1.6.6 0 1 .4 1 .9zm58 .9c0 .5-.7 1.7-1.5 2.8-1.4 1.9-1.4 1.9-1.5-.2 0-1.1.3-2.4.7-2.7.9-1 2.3-.9 2.3.1zm-56 1.6c0 .8-.4 1.8-1 2.1-.5.3-1-.3-1-1.4 0-1.2.5-2.1 1-2.1.6 0 1 .6 1 1.4zm38.7 6.3c-.1 2.7-.3 4-.5 3-.2-.9-.8-1.5-1.3-1.2-1 .7-1.2-2.5-.3-4.9 1.2-3 2.1-1.6 2.1 3.1zm14 1.5c1.1 1.3 2.4 3.4 2.8 4.8l.7 2.5-1.9-2.3c-1.1-1.2-2.8-2.2-3.7-2.2-1 0-1.6-.9-1.6-2.5 0-3.1 1-3.2 3.7-.3zm-46.7 6.6c0 2.1-.2 2.4-1 1.2-1.3-2-1.3-5.3 0-4.5.6.3 1 1.8 1 3.3zm29-2.2c0 .8-.5 1.2-1 .9-.6-.4-.8-1.1-.5-1.6.9-1.4 1.5-1.1 1.5.7zm-37.1 2.1c0 1-.4 2.7-.9 3.8-.7 1.6-.9 1.3-.9-1.8-.1-2 .4-3.7.9-3.7.6 0 1 .8.9 1.7zm42.1.6c0 .8-1.1 2.4-2.5 3.7-1.4 1.3-2.5 2.9-2.5 3.7 0 .7-.4 1.3-1 1.3-.5 0-1 .7-1 1.7 0 1.5.2 1.5 1.9-.1 1.3-1.2 2.1-1.4 2.6-.6.9 1.5-2.3 5-4.7 5-1 0-1.8.4-1.8.9s-1.1 1.2-2.5 1.5c-1.4.4-2.5 1.2-2.5 1.9-.1 1.4-3.9 6.2-4.5 5.6-.4-.4.9-7.1 2.1-10.9.5-1.3.6-1.3 1.4 0 .6.8 1 1 1 .4 0-.7.6-1.4 1.4-1.7 1-.4 1.2 0 .9 1.4-.3 1-.1 1.9.5 1.9 1.2 0 2.2-7.2 1.1-8.4-.4-.5-.1-2.2.7-3.8 1.1-2.1 2-2.7 3.3-2.3 1 .3 2.4-.1 3.1-1 1.5-1.9 3-1.9 3-.2zm8.7 5.6c-.5 3.8.6 7.2 1.9 5.9.3-.4.9-2.2 1.3-3.9 1-4.9 3.4-5.1 2.6-.3-1 6.1-1.2 6.4-4.7 6.4-5.3 0-5.8-.9-3.5-6.8 1.1-2.8 2.2-5.2 2.5-5.2.2 0 .2 1.7-.1 3.9zm-5.9 2.7c-.2 3.5-.7 4.4-2.1 4.4-1.6 0-1.8-.5-1.2-4.3.9-5 1.3-5.9 2.6-5.1.5.3.8 2.5.7 5zm-16.8-2.1c-.7.9-1.5 1.3-1.8 1-.3-.2.1-1.1.8-2 .7-.9 1.5-1.3 1.8-1 .3.2-.1 1.1-.8 2zm-10 4.4c1.5 2.9 1.2 9.4-.5 11.7-.8 1-1.5 2.8-1.5 3.9-.1 1.9-.1 1.9-1.1.2-.6-1.1-.8-3.4-.4-5.5s.7-5.6.8-8c.2-4.6 1-5.3 2.7-2.3z"/><path d="M141.7 67.7c-.4.3-.7 1.1-.7 1.7 0 .6.5.5 1.2-.2.6-.6.9-1.4.7-1.7-.3-.3-.9-.2-1.2.2zM165.5 68c.3.5.8 1 1.1 1 .2 0 .4-.5.4-1 0-.6-.5-1-1.1-1-.5 0-.7.4-.4 1zM114.5 82c-.3.5-.1 1 .4 1 .6 0 1.1-.5 1.1-1 0-.6-.2-1-.4-1-.3 0-.8.4-1.1 1zM88.9 96.7c-1.3 1.6-1.2 1.7.4.4.9-.7 1.7-1.5 1.7-1.7 0-.8-.8-.3-2.1 1.3zM109.6 97.6c-.9 2.3-.7 4.6.3 4 1.2-.8 2.1-4.5 1.1-5.1-.4-.3-1.1.2-1.4 1.1zM270.5 108c-.6 2-.7 2.1-2 .3-1.3-1.7-1.4-1.7-2.1 0-.3 1-.7 3.8-.8 6.3-.1 2.8-.6 4.4-1.3 4.4-.7 0-1.3-.5-1.3-1 0-.6-.4-1-1-1-3.2 0 .6 7 5.5 10 3.7 2.3 6.7 2.8 4.7.8-1.9-1.9-1.4-2.8 1.4-2.8 1.5 0 2.3-.4 1.9-1.1-.4-.5.1-1.9 1.1-3 2.1-2.4 2.6-4.4 1.8-8.2-.5-2.2-1.1-2.8-2.4-2.4-1.3.3-2-.1-2.2-1.6-.4-2.8-2.5-3.3-3.3-.7zM83 110.5c-4.7 3.4-5.4 5-3.4 8 1.6 2.4 1.8 2.5 3.5.9 1.1-1 1.9-3 1.9-4.6 0-1.5.4-2.8.9-2.8.6 0 .9-.9.8-2-.1-1.1-.1-2-.2-2 0 .1-1.6 1.2-3.5 2.5zM109.1 119.9c-1.4 1.1-2 2.3-1.5 3.4.9 2.4 3.3 2.1 4.4-.6.9-2.1.9-2.1.9.4.1 1.5-.5 3.2-1.3 3.8-1.6 1.3-2.7 6.1-1.5 6.1.5 0 .9.5.9 1.1 0 .7.7 1.7 1.6 2.3 1.9 1.4.9 4.2-1.8 4.9-1.6.5-1.9 1.3-1.8 4.4.3 5.4.2 5.7-1.5 4.3-2-1.7-2.3-1.2-1.7 3.6.3 3.6.6 4 2.6 3.7 1.3-.3 3 .3 3.9 1.2 1.8 1.8 3.7 1.2 3.7-1.1 0-1.1-.6-1.3-2-.9-4.5 1.4-4.4-2.4.1-6.8 2.2-2.1 2.9-2.2 2.9-.2 0 .8.5 1.5 1 1.5 1.8 0 1.1-4.3-1.1-6.6-1.9-2-2-2.6-.9-5.9 1-3 1-3.9 0-4.5-.9-.5-.9-.9-.1-1.4 1.3-.9 1.5-5.3.2-5.8-.5-.2-1.1-2.1-1.3-4.2-.4-4.5-2.2-5.3-5.7-2.7zM282 124.6c0 .8.5 1.2 1 .9.6-.4.8-1.1.5-1.6-.9-1.4-1.5-1.1-1.5.7zM84 128c-.6 1.1-.8 2-.6 2 .3 0 1-.9 1.6-2 .6-1.1.8-2 .6-2-.3 0-1 .9-1.6 2zM81.7 135.7c-.4.3-.7 1.1-.7 1.7 0 .6.5.5 1.2-.2.6-.6.9-1.4.7-1.7-.3-.3-.9-.2-1.2.2z"/><path d="M107 137c0 1.1.7 2 1.5 2s1.5-.9 1.5-2-.7-2-1.5-2-1.5.9-1.5 2zM250.9 145.2c-.6 1.5-1.5 2.5-2 2.3-.4-.3-.6.3-.5 1.2.4 2.4 2 2.6 4.4.6 1.9-1.6 2-2 .8-4.3l-1.4-2.5-1.3 2.7zM224.6 147.8c-.2.4-.1 1.4.3 2.1.6.9 1.1 1 1.5.2.4-.6.2-1.1-.4-1.1-.6 0-.8-.5-.5-1 .3-.6.4-1 .1-1-.3 0-.7.4-1 .8zM118.6 154.7c-.6 1.4-.5 1.5.5.6.7-.7 1-1.5.7-1.8-.3-.3-.9.2-1.2 1.2zM84.1 159.2c.1 4.2.3 4.8.9 2.8 1.2-3.6 1.2-8 0-8-.6 0-1 2.4-.9 5.2zM102 159c0 .5.5 1 1 1 .6 0 1-.5 1-1 0-.6-.4-1-1-1-.5 0-1 .4-1 1zM109.2 161.6c.9.9 2.1 1.3 2.8.9 1.4-.9-.5-2.5-3-2.5-1.2 0-1.2.3.2 1.6zM124.8 162.9c-1.9 1.9-2.5 7.1-.8 7.1 1.3 0 3.2-3.8 2.5-5-.3-.5-.1-1.1.5-1.5 1.2-.7 1.4-2.5.3-2.4-.5 0-1.6.8-2.5 1.8zM273 167c-1.3.8-1.2 1 .3 1 .9 0 1.7-.5 1.7-1 0-1.2-.1-1.2-2 0zM263.9 169.2c-1 1.8-.9 2 .6 1.5.9-.4 2.1-.7 2.6-.7s.9-.7.9-1.5c0-2.2-2.8-1.8-4.1.7zM280 169.7c0 .6-.3 1.8-.6 2.7-.3.9-.2 1.6.4 1.6 1.5 0 2.1-2.5 1.1-4.1-.5-.9-.9-.9-.9-.2zM272.2 172.1c-.6 1.5-.5 3 .2 4.1 1 1.6 1.2 1.6 3.3-.4 1.3-1.2 2.2-2.2 2-2.2-.1-.1-1.2-1-2.4-2-2.2-1.9-2.3-1.8-3.1.5zM139.6 180.6c-.9 2.5-.7 3.4.8 3.4 1.9 0 2.8-1.4 2-3.4-.8-2-2-2-2.8 0zM250.2 182.9c-.8.4-1.2 1.9-1 3.2.4 2.8 3.7 4 3.6 1.2 0-1 .1-2.4.3-3.2.5-1.7-1.1-2.4-2.9-1.2zM246.2 193.2c-.6.6-1.2 1.9-1.2 2.7 0 1.3.2 1.3 1.6-.1.9-.9 1.5-2.1 1.3-2.7-.3-.9-.8-.8-1.7.1zM221 198.1c0 .5.5.7 1 .4.6-.3 1-.8 1-1.1 0-.2-.4-.4-1-.4-.5 0-1 .5-1 1.1zM118.2 206.5c-.7 1.5-1.1 3-.8 3.2.7.7 2.8-3.6 2.4-4.9-.2-.6-.9.2-1.6 1.7zM209.5 211c-.3.5.1 1 .9 1 .9 0 1.6-.5 1.6-1 0-.6-.4-1-.9-1-.6 0-1.3.4-1.6 1zM136 212.6c0 1.7 3.6 1.9 4.3.1.3-.7-.5-1.3-1.9-1.3-1.5-.1-2.4.4-2.4 1.2z"/><path d="M117 212.5c-.4 1.7-.9 4.9-1.2 8.2-.2 2.2-.8 3.3-1.9 3.3-2.1 0-9.7 5.1-13.8 9.4-3.3 3.4-5.8 11-4 12.2.5.3.9 1.3.9 2.3 0 1 .6 2.4 1.4 3 .8.7 2.5 3.5 3.9 6.4 1.3 2.9 3.5 6.3 4.8 7.7 1.4 1.4 3.1 3.8 3.9 5.3 2.2 4.5 3 4.7 15.8 4.7 1.7.1 3.2-.4 3.2-1 0-.5-.5-1-1.1-1-.6 0-.9-.6-.6-1.4.3-.7 0-1.9-.6-2.5-.8-.8-.8-1.1 0-1.1.6 0 1.6-1.4 2.3-3 1.5-3.7 2.6-3.8 3.4-.4.6 2.1.9 2.4 2.1 1.4 1.2-1 1.5-.9 1.5.9 0 1.4.6 2.1 1.9 2.1 1.1 0 2.3.4 2.6 1 .3.5 1.6 1 2.8 1 1.6 0 1.8.3.9 1.2-.6.6-2 1.3-2.9 1.4-7.7 1.1-8.5 1.5-7.1 3.2.9 1.1 1 1.4.1.8-.7-.4-1.3-.3-1.3.2s1.4 1.2 3 1.4c1.7.3 3 .1 3-.3 0-.3 1.2-1.4 2.6-2.4l2.7-1.7-.5 2.6c-.5 2.5-.4 2.6 1.3 1 1.7-1.5 1.9-1.5 2.5 0 .3.9 1.2 1.6 2 1.6 2 0 1.7 1.7-.3 2.9-1.4.8-1.5 1-.3 1.1.8 0 2.1-.9 2.8-2 .7-1.2 2.3-2 3.8-2 2.2 0 2.4-.2 1.4-1.5-1-1.2-.8-2.1 1-5 1.3-2.1 2.6-3.2 3.3-2.8.7.3.3-.4-.8-1.6l-2-2.3 3.4-2.9c1.9-1.5 3.8-2.6 4.2-2.4.4.3 1.9.1 3.3-.5 3.1-1.1 3.4-4 .6-4.7-1.1-.3-2-1.3-2.1-2.2-.5-6.6-.9-8.4-2.4-10.1-.9-1-1.4-2.3-1.1-2.9 1.6-2.5-3.8-14.2-8.9-19.8-1.9-2.1-3.8-4.6-4.1-5.6-.7-2.1-2-2.2-3.1-.3-.4.8-1.9 1.6-3.3 1.8-2 .2-2.6-.2-2.8-2-.4-2.9-2.5-2.4-3.2.9-.6 2.2-1 2.4-5.6 2.1-3-.2-5.4-1-6.1-1.9-1-1.3-1.5-1.4-2.8-.3-.9.8-1.4 2.2-1.2 3.2.5 1.9-1.7 2.6-2.8.8-1.1-1.8-2.6-1-2 1 .3 1.1.2 2-.3 2-1.5 0-2-2.2-1.2-4.5.4-1.1.3-3.1-.1-4.5s-.8-2.1-.9-1.5zm43.4 33.7c-.4 1.4-.1 1.6 1.2 1.1 1.4-.5 1.6-.2 1 2.3-.4 1.6-1.5 4-2.4 5.3-1.8 2.5-1.9 2.6-4.5 7.6-2.2 4.1-3.5 4.2-3.1.1.4-3 .1-3.5-1.8-3.8-1.5-.2-2.2-.9-2.2-2.1.1-.9-.5-1.7-1.5-1.7-1.1-.1-.7-.8 1.4-2.5 3.5-2.9 4.5-3.1 4.5-1 0 .8-.5 1.5-1.2 1.5-.6 0-.8.3-.5.6 1.1 1.2 3.8-1.8 3.2-3.6-.3-1 .5-2.5 2-3.8 1.4-1.2 2.5-2.8 2.5-3.4 0-.9.3-.8 1 .2.5.8.7 2.3.4 3.2zM137 262c0 .5-.5 1-1.1 1-.5 0-.7-.5-.4-1 .3-.6.8-1 1.1-1 .2 0 .4.4.4 1zm4.8 3.8c.6 1.8-1.5 1.4-2.2-.4-.4-1-.1-1.4.6-1.2.6.2 1.4 1 1.6 1.6zm17.2 2c0 1.2-6.7 4.2-9.2 4.2-3.2 0-1-1.8 4.3-3.4 2.4-.8 4.5-1.4 4.7-1.5.1-.1.2.3.2.7zM166.6 217.9c-.3.4.1 1.7.9 2.7 1.1 1.5 1.6 1.6 2.6.7 1-1 .9-1.5-.1-2.8-1.4-1.7-2.6-1.9-3.4-.6zM202.4 252.6c.3.9.6 1.8.6 2 0 .3.4.3 1-.1 1.1-.7.2-3.5-1.2-3.5-.6 0-.7.7-.4 1.6zM116.9 287.9c1.7 3.1 3.3 3.7 2.9 1-.2-1.3-1.1-2.5-2.1-2.7-1.6-.3-1.7-.1-.8 1.7zM148.7 286.6c-1.2 1.2-.8 5.9.7 7.9 2.2 3 4.3 1.3 4.2-3.7-.1-3.5-.5-4.4-2.1-4.6-1.2-.2-2.4 0-2.8.4zM165.6 327.7c-.6 1.4-.5 1.5.5.6.7-.7 1-1.5.7-1.8-.3-.3-.9.2-1.2 1.2zM176.3 339.9c.6 6.7.1 7.8-2.4 5.6-1.6-1.5-1.6-1.3-1.1 3.2.3 2.6 1.1 5.3 1.8 6 1.4 1.4 1.6 1 2.9-5.7.4-1.9 1.6-4.4 2.6-5.6 1.7-1.8 1.7-2.2.4-4-.8-1-1.5-2.7-1.5-3.7 0-.9-.7-1.7-1.6-1.7-1.4 0-1.6.9-1.1 5.9zM150 342.2c0 .4.4.8.9.8.6 0 1.2-.4 1.5-.8.3-.5-.1-.9-.9-.9s-1.5.4-1.5.9zM164 342.4c0 .4.7 2.3 1.5 4.3.9 2 1.3 4.4.9 5.5-.3 1-.1 1.8.4 1.8s1.2-1.4 1.6-3.1c.8-4.1.8-6.4 0-5.6-.4.4-1.5-.3-2.5-1.5-1.1-1.1-1.9-1.8-1.9-1.4zM151 345c0 .5.5 1 1 1 .6 0 1-.5 1-1 0-.6-.4-1-1-1-.5 0-1 .4-1 1zM144.1 351.7c0 1.6.3 2.2.6 1.5.2-.6 1.1-1.2 1.9-1.2 1.9 0 1.8-1.6-.2-2.4-2.3-.9-2.4-.8-2.3 2.1zM149.6 355.9c-.3.5.1 1.4.9 2.1 1.2 1 1.5 1 1.5-.3 0-1.9-1.6-3.1-2.4-1.8zM193 361c0 .5.5 1 1.1 1 .5 0 .7-.5.4-1-.3-.6-.8-1-1.1-1-.2 0-.4.4-.4 1zM215 302.1c0 1.1.5 1.7 1 1.4.6-.3 1-1.3 1-2.1s-.4-1.4-1-1.4c-.5 0-1 .9-1 2.1zM218.1 318.6c0 1.1.3 1.4.6.6.3-.7.2-1.6-.1-1.9-.3-.4-.6.2-.5 1.3z"/></svg>